External Loads File
version=1
nRows=70
nColumns=13
Range=5.000000e-03-10 seconds
endheader
time 	forceRightX 	forceRightY 	forceRightZ 	pointRightX 	pointRightY 	pointRightZ 	forceLeftX 	forceLeftY 	forceLeftZ 	pointLeftX 	pointLeftY 	pointLeftZ 		
7.505000 -119.087146 347.781882 -0.000000 0.322842 0.368059 -0.102495 106.460058 87.474496 -0.000000 0.023887 0.271750 -0.339411
7.510000 -126.379090 371.591243 -0.000000 0.324256 0.357089 -0.102416 111.754169 90.615240 -0.000000 0.022556 0.281834 -0.339451
7.515000 -132.443265 395.127762 -0.000000 0.325382 0.345935 -0.102494 116.565336 93.595214 -0.000000 0.021904 0.292142 -0.339494
7.520000 -137.664379 418.138826 -0.000000 0.325974 0.334761 -0.102404 120.475120 96.359174 -0.000000 0.021944 0.302318 -0.339590
7.525000 -141.651911 440.543417 -0.000000 0.325993 0.323581 -0.102252 123.342644 98.654231 -0.000000 0.022545 0.312380 -0.339302
7.530000 -143.156051 462.458284 -0.000000 0.325603 0.312345 -0.101973 125.302466 100.021446 -0.000000 0.024023 0.322834 -0.339450
7.535000 -142.576067 483.464397 -0.000000 0.324567 0.301170 -0.102444 126.194264 100.463048 -0.000000 0.026250 0.333284 -0.339410
7.540000 -140.374736 503.230627 -0.000000 0.323265 0.290160 -0.101781 125.928493 99.946816 -0.000000 0.029117 0.343498 -0.339435
7.545000 -136.240323 521.770686 -0.000000 0.321015 0.279440 -0.102710 124.619929 98.204966 -0.000000 0.032731 0.353631 -0.339535
7.550000 -130.266170 539.060422 -0.000000 0.318513 0.269016 -0.102276 122.298646 95.080160 -0.000000 0.036988 0.363719 -0.339704
7.555000 -122.629281 555.132676 -0.000000 0.315357 0.258791 -0.102558 118.963252 90.470034 -0.000000 0.041727 0.373539 -0.339700
7.560000 -113.036253 570.198267 -0.000000 0.311674 0.248754 -0.102695 114.653792 84.219923 -0.000000 0.047175 0.383131 -0.339712
7.565000 -102.192016 584.277993 -0.000000 0.307709 0.239031 -0.103250 109.204145 76.432236 -0.000000 0.053097 0.392453 -0.339736
7.570000 -89.120099 597.643202 -0.000000 0.302841 0.229637 -0.103305 102.631507 66.935938 -0.000000 0.059582 0.401544 -0.339752
7.575000 -74.196773 610.189159 -0.000000 0.297429 0.220617 -0.103308 94.712048 55.872633 -0.000000 0.066604 0.410338 -0.339764
7.580000 -57.162755 621.778093 -0.000000 0.291421 0.211878 -0.103256 85.284811 43.301676 -0.000000 0.074064 0.418830 -0.339719
7.585000 -37.954577 632.085167 -0.000000 0.284810 0.203482 -0.103321 74.199518 29.354921 -0.000000 0.081981 0.427055 -0.339619
7.590000 -15.886099 640.644019 -0.000000 0.277479 0.195630 -0.103072 61.391293 14.148288 -0.000000 0.090941 0.434675 -0.340585
7.595000 6.359377 646.758122 -0.000000 0.269937 0.188228 -0.102993 46.831430 -1.826388 -0.000000 0.099763 0.441994 -0.340443
7.600000 28.096122 649.864327 -0.000000 0.261989 0.181274 -0.102919 30.814493 -18.324963 -0.000000 0.108185 0.448869 -0.339796
7.605000 51.228563 649.199768 -0.000000 0.253689 0.174847 -0.102746 13.654107 -35.124290 -0.000000 0.117494 0.455176 -0.339648
7.610000 74.114909 644.110897 -0.000000 0.245019 0.168994 -0.102575 -4.216826 -51.699232 -0.000000 0.127011 0.460907 -0.339711
7.615000 95.893293 634.122069 -0.000000 0.236102 0.163913 -0.102395 -22.271429 -67.516487 -0.000000 0.136604 0.466303 -0.339834
7.620000 115.805062 619.049478 -0.000000 0.226937 0.159605 -0.102220 -39.905169 -81.966000 -0.000000 0.146135 0.471168 -0.339885
7.625000 134.050331 598.879448 -0.000000 0.217550 0.155878 -0.102128 -56.615159 -94.327311 -0.000000 0.155830 0.475517 -0.340117
7.630000 149.703789 574.146275 -0.000000 0.208002 0.152953 -0.101982 -71.782835 -103.984204 -0.000000 0.165455 0.479311 -0.339630
7.635000 163.029464 545.395463 -0.000000 0.198225 0.150760 -0.101817 -85.024049 -110.336473 -0.000000 0.175032 0.482489 -0.339764
7.640000 173.829410 513.411535 -0.000000 0.188370 0.149058 -0.101693 -95.946254 -113.011004 -0.000000 0.184638 0.485070 -0.339625
7.645000 182.280256 478.870137 -0.000000 0.178369 0.148113 -0.101694 -104.313966 -111.810988 -0.000000 0.194311 0.487113 -0.339422
7.650000 188.071129 442.530756 -0.000000 0.168316 0.147867 -0.101707 -109.906156 -106.904967 -0.000000 0.203890 0.488373 -0.339533
7.655000 190.485637 405.264083 -0.000000 0.158599 0.148298 -0.101671 -112.581277 -98.866538 -0.000000 0.213194 0.488924 -0.339568
7.660000 189.931981 367.393909 -0.000000 0.149018 0.149424 -0.101726 -112.705946 -88.193311 -0.000000 0.222281 0.488781 -0.339598
7.665000 186.298908 329.456400 -0.000000 0.139822 0.151340 -0.101915 -110.733141 -75.595874 -0.000000 0.231133 0.487977 -0.339887
7.670000 179.802558 291.888719 -0.000000 0.130912 0.153860 -0.102028 -107.340008 -61.682527 -0.000000 0.239638 0.486515 -0.339784
7.675000 170.893802 255.064747 -0.000000 0.122343 0.157070 -0.101933 -103.327042 -46.905978 -0.000000 0.247730 0.484268 -0.340139
7.680000 160.165138 219.341490 -0.000000 0.114010 0.160978 -0.101954 -99.490039 -31.570705 -0.000000 0.255452 0.481313 -0.340602
7.685000 148.115578 185.228493 -0.000000 0.106006 0.165449 -0.102025 -96.492627 -15.942994 -0.000000 0.262772 0.477538 -0.341054
7.690000 135.330789 153.252882 -0.000000 0.098206 0.170575 -0.102040 -94.865851 -0.157073 -0.000000 0.269630 0.473191 -0.341568
7.695000 122.331164 124.023757 -0.000000 0.090647 0.176272 -0.102118 -94.973662 15.768472 -0.000000 0.276012 0.468317 -0.342160
7.700000 109.755828 97.977757 -0.000000 0.083398 0.182467 -0.102152 -96.999603 32.118710 -0.000000 0.281948 0.462298 -0.342530
7.705000 97.958236 75.677802 -0.000000 0.076397 0.189186 -0.102158 -101.062032 49.197522 -0.000000 0.287408 0.455953 -0.342939
7.710000 87.376594 57.339032 -0.000000 0.069704 0.196426 -0.102133 -107.205877 67.619934 -0.000000 0.292339 0.448956 -0.343173
7.715000 78.279959 43.048524 -0.000000 0.063355 0.204020 -0.102035 -115.452413 88.019698 -0.000000 0.296778 0.441358 -0.343333
7.720000 70.853537 32.658245 -0.000000 0.057316 0.212059 -0.101981 -125.709521 111.041082 -0.000000 0.300830 0.433252 -0.343505
7.725000 65.140275 25.908782 -0.000000 0.051716 0.220497 -0.101918 -137.862109 137.059714 -0.000000 0.304252 0.424436 -0.343800
7.730000 61.128681 22.348695 -0.000000 0.046522 0.229428 -0.101828 -151.565157 166.283478 -0.000000 0.307421 0.415083 -0.344276
7.735000 58.747898 21.501295 -0.000000 0.041816 0.238694 -0.101840 -166.384193 198.499583 -0.000000 0.310278 0.404976 -0.344653
7.740000 57.918269 22.903863 -0.000000 0.037556 0.248356 -0.101818 -181.810348 233.097953 -0.000000 0.312994 0.394537 -0.345092
7.745000 58.579409 26.163275 -0.000000 0.033871 0.258351 -0.101780 -197.313388 269.159773 -0.000000 0.315392 0.383800 -0.345217
7.750000 60.721559 30.963857 -0.000000 0.030734 0.268662 -0.101806 -212.278185 305.702820 -0.000000 0.317454 0.372898 -0.345336
7.755000 64.347131 37.131865 -0.000000 0.028319 0.278959 -0.101848 -226.446111 341.571798 -0.000000 0.319318 0.361908 -0.345634
7.760000 69.501739 44.435512 -0.000000 0.026616 0.289440 -0.101826 -239.334094 375.994751 -0.000000 0.320727 0.350977 -0.345623
7.765000 76.171458 52.565264 -0.000000 0.025660 0.299903 -0.101871 -250.554020 408.413527 -0.000000 0.321799 0.340007 -0.346154
7.770000 84.225057 61.051604 -0.000000 0.025395 0.310507 -0.101690 -259.555445 438.633365 -0.000000 0.322252 0.329032 -0.346119
7.775000 93.271123 69.420760 -0.000000 0.025852 0.321067 -0.101716 -266.301802 466.364722 -0.000000 0.322169 0.318153 -0.345891
7.780000 102.797418 77.072955 -0.000000 0.027366 0.331500 -0.101565 -270.318137 491.759123 -0.000000 0.321537 0.307212 -0.345783
7.785000 112.131617 83.502302 -0.000000 0.028982 0.341994 -0.102148 -271.456429 514.917538 -0.000000 0.320467 0.296401 -0.345981
7.790000 120.561417 88.295951 -0.000000 0.031706 0.352236 -0.102446 -269.627992 536.022283 -0.000000 0.318642 0.285631 -0.346024
7.795000 127.549939 90.943569 -0.000000 0.035421 0.362665 -0.102094 -263.947091 555.759167 -0.000000 0.316149 0.275001 -0.345883
7.800000 132.283777 91.559493 -0.000000 0.039709 0.372631 -0.102058 -255.829490 573.803026 -0.000000 0.313193 0.264621 -0.345805
7.805000 134.477483 89.867712 -0.000000 0.044505 0.382486 -0.102043 -244.398723 590.961991 -0.000000 0.309630 0.254367 -0.345680
7.810000 133.854570 85.978900 -0.000000 0.050039 0.392065 -0.101991 -229.840905 607.456947 -0.000000 0.305486 0.244297 -0.345484
7.815000 130.276414 80.226241 -0.000000 0.056037 0.401479 -0.102239 -212.764758 623.298907 -0.000000 0.300734 0.234759 -0.345219
7.820000 123.938094 72.791706 -0.000000 0.062794 0.410617 -0.102041 -192.569349 638.841203 -0.000000 0.295452 0.225362 -0.344772
7.825000 115.031192 64.146891 -0.000000 0.070353 0.419432 -0.102092 -169.578086 653.936182 -0.000000 0.289599 0.216289 -0.344396
7.830000 103.722465 55.018043 -0.000000 0.077828 0.427788 -0.102460 -145.509367 667.980245 -0.000000 0.283234 0.207560 -0.344048
7.835000 90.405858 45.754320 -0.000000 0.085443 0.435809 -0.102726 -120.364473 680.714192 -0.000000 0.276366 0.199247 -0.343921
7.840000 75.552613 36.366630 -0.000000 0.094779 0.443349 -0.102675 -91.714289 691.950652 -0.000000 0.269027 0.191198 -0.343849
7.845000 59.187544 27.554293 -0.000000 0.103834 0.450383 -0.102868 -63.557893 700.300274 -0.000000 0.261296 0.183679 -0.343843
7.850000 41.597171 19.334726 -0.000000 0.112572 0.456955 -0.103294 -36.427246 705.077145 -0.000000 0.253207 0.176778 -0.343448
